# Apple ModelIO OBJ File: Rund_Dieter
mtllib Rund_Dieter.mtl
g Pneumatikspanner.006_Opaque(210,210,255)
v 0.00083 0.003609 -0.1855
v -0.00069 0.003552 -0.1995
v -0.001493 0.003173 -0.1855
v -0.002416 0.002249 -0.1995
v -0.002871 0.001207 -0.1855
v -0.002895 0.000461 -0.1995
v -0.002285 -0.001275 -0.1855
v -0.002405 -0.001042 -0.1995
v -0.000684 -0.002335 -0.1995
v 5.4e-05 -0.002486 -0.1855
v -0.001774 0.005364 -0.1995
v 0.001058 0.005585 -0.1995
v 0.000651 0.005609 -0.2025
v -0.001461 0.005384 -0.2025
v -0.004928 0.001099 -0.1995
v -0.004782 0.002031 -0.2025
v -0.004527 -0.001308 -0.2025
v -0.000337 -0.004381 -0.1995
v -0.002591 -0.003636 -0.1995
v -0.001327 -0.004243 -0.2025
v -0.003347 -0.002992 -0.2025
v -0.004281 -0.001803 -0.1995
v -0.003848 0.003698 -0.1995
v -0.003242 0.004373 -0.2025
v -0.001461 -0.004144 -0.1855
v 0.000612 -0.004381 -0.1855
v 0.000174 -0.004433 -0.1825
v -0.003244 -0.00324 -0.1825
v -0.003467 -0.002944 -0.1855
v -0.004699 -0.000687 -0.1855
v -0.004721 -0.000783 -0.182501
v -0.00485 0.001347 -0.1855
v -0.004733 0.002153 -0.1825
v -0.003682 0.003948 -0.1855
v -0.002931 0.004678 -0.1825
v -0.001321 0.00549 -0.1855
v 0.000721 0.005716 -0.1825
v 0.001576 0.005451 -0.1855
v 0.004163 0.003727 -0.1855
v 0.002873 0.002008 -0.1855
v 0.005191 0.000798 -0.1855
v 0.003111 4e-05 -0.1855
v 0.004556 -0.001803 -0.1855
v 0.002298 -0.00151 -0.1855
v 0.002677 -0.003752 -0.1855
v 0.0024 -0.003862 -0.1825
v 0.004102 -0.002484 -0.1825
v 0.00494 -0.000824 -0.1825
v 0.005058 0.00193 -0.1825
v 0.003517 0.004373 -0.1825
v 0.001828 0.003195 -0.1995
v 0.001774 -0.001997 -0.1995
v 0.001772 -0.004162 -0.1995
v 0.004009 -0.00261 -0.1995
v 0.004912 -0.000939 -0.1995
v 0.003007 -0.000314 -0.1995
v 0.003133 0.001169 -0.1995
v 0.005011 0.002245 -0.1995
v 0.003123 0.004669 -0.1995
v 0.003178 0.004671 -0.2025
v 0.004802 0.00255 -0.2025
v 0.005134 0.00018 -0.2025
v 0.004329 -0.002209 -0.2025
v 0.002261 -0.004001 -0.2025
vn -0.088 0.9961 0.0088
vn -0.1149 0.9933 0.0099
vn -0.2782 0.9604 0.0157
vn -0.7554 0.6552 0.011
vn -0.8272 0.5618 0.0136
vn -0.8735 0.4867 0.011
vn -0.9908 -0.1353 0.0102
vn -0.9867 -0.162 0.0118
vn -0.9462 -0.3235 0.009
vn -0.5908 0.8068 -0.0106
vn -0.5172 0.8558 -0.0089
vn -0.6815 0.7318 -0.0078
vn -0.9815 0.1912 -0.0091
vn -0.9361 0.3516 -0.0105
vn -0.9863 0.1646 -0.0084
vn -0.95 -0.3017 -0.0809
vn -0.9236 -0.3821 0.0324
vn -0.9246 -0.3789 0.0402
vn -0.5893 -0.8079 -0.0047
vn -0.6799 -0.7332 -0.0081
vn -0.5156 -0.8568 0.0009
vn -0.3682 -0.9297 0.0123
vn -0.5469 -0.8372 0.0058
vn -0.4721 -0.8815 0.0115
vn -0.1233 0.9916 0.0402
vn -0.0304 0.9995 -0.0031
vn -0.0257 0.9995 0.0182
vn -0.1218 0.9925 0.0039
vn -0.0206 0.9994 0.0292
vn -0.1975 0.9802 -0.0133
vn -0.9949 -0.0836 -0.0556
vn -0.9981 0.0153 -0.06
vn -0.9866 -0.16 -0.0334
vn -0.2191 -0.9742 0.0541
vn -0.4008 -0.9156 0.0314
vn -0.3483 -0.9366 0.0393
vn -0.4513 -0.8919 -0.0278
vn -0.5261 -0.8497 -0.0364
vn -0.5981 -0.8007 -0.0346
vn -0.7391 -0.6727 0.0346
vn -0.6988 -0.7146 0.0316
vn -0.7674 -0.6407 0.0251
vn -0.7686 -0.6398 0.0007
vn -0.7963 -0.6049 -0.0055
vn -0.8665 -0.4982 -0.0309
vn -0.9869 -0.1614 0.0023
vn -0.9491 -0.3099 0.0557
vn -0.9912 -0.1322 -0.0009
vn -0.9188 0.3889 0.0677
vn -0.939 0.3374 0.066
vn -0.9026 0.4269 0.0557
vn -0.8646 0.502 -0.0232
vn -0.85 0.5259 -0.0314
vn -0.8018 0.5962 -0.0412
vn -0.6351 0.765 0.1064
vn -0.5996 0.8 0.021
vn -0.5929 0.8052 0.0084
vn -0.5418 0.84 -0.0293
vn -0.4803 0.8761 -0.0422
vn -0.4423 0.8959 -0.0423
vn -0.201 -0.9796 -0.0058
vn -0.0217 -0.9993 -0.0317
vn -0.122 -0.9924 -0.0182
vn -0.4125 -0.9095 0.0506
vn -0.3622 -0.9298 0.0659
vn -0.236 -0.9691 0.0712
vn -0.4667 -0.8841 -0.0249
vn -0.5031 -0.8635 -0.0369
vn -0.5624 -0.8256 -0.0461
vn -0.986 -0.1664 -0.0137
vn -0.996 -0.0894 0.0001
vn -0.9997 0.0126 0.0208
vn -0.9958 -0.0263 0.0874
vn -0.9991 0.0397 0.0149
vn -0.9991 0.0404 0.0161
vn -0.617 0.7853 -0.0511
vn -0.5467 0.8356 -0.0539
vn -0.4742 0.8795 -0.0393
vn -0.3075 0.947 0.0929
vn -0.359 0.93 0.0784
vn -0.1793 0.9796 0.0902
vn -0.7608 0.6476 0.0421
vn -0.7877 0.614 0.0495
vn -0.8608 0.5072 0.0421
vn -0.9291 0.3635 -0.0686
vn -0.8886 0.4539 -0.0653
vn -0.9291 0.364 -0.0659
vn -0.8751 -0.4837 -0.0145
vn -0.9001 -0.4351 -0.0226
vn -0.8548 -0.519 0.0007
vn -0.8826 -0.4699 -0.0125
vn -0.8628 -0.5056 0.0024
vn -0.8254 -0.5645 0.0122
vn 0.0002 0.0003 -1
vn -0 -0 -1
vn -0.0002 0.0002 -1
vn -0 -0 1
vn 0.0002 -0.0003 1
vn -0.0004 0.0002 1
vn 0.2121 -0.9764 0.0396
vn 0.2378 -0.9707 0.0348
vn 0.3253 -0.9444 -0.0478
vn 0.7242 -0.6882 -0.0446
vn 0.6844 -0.7284 -0.0319
vn 0.7538 -0.6559 -0.0403
vn 0.8497 -0.5269 0.0192
vn 0.8857 -0.4638 0.0208
vn 0.9276 -0.3731 0.0201
vn 0.9845 -0.1748 -0.0156
vn 0.9429 -0.3296 -0.049
vn 0.989 -0.1472 -0.0126
vn 0.9301 0.3627 -0.0583
vn 0.9689 0.2363 -0.0739
vn 0.9093 0.4138 -0.0444
vn 0.5726 0.818 -0.0554
vn 0.5957 0.8017 -0.0494
vn 0.514 0.8567 -0.0435
vn -0.0338 0.9976 -0.0611
vn 0.0535 0.992 -0.1142
vn -0.0244 0.9986 -0.0477
vn 0.387 0.9219 0.0157
vn 0.4198 0.9068 0.0386
vn 0.4457 0.8896 0.1
vn 0.8325 0.5402 0.1234
vn 0.857 0.5132 0.0468
vn 0.8666 0.4985 0.0235
vn 0.9976 -0.0518 0.0455
vn 0.9978 0.0488 0.045
vn 0.9909 -0.1303 0.0326
vn 0.6541 -0.7563 0.0126
vn 0.6654 -0.7464 0.0105
vn 0.588 -0.8082 0.034
vn 0.289 -0.9572 -0.0132
vn 0.3415 -0.9399 -0.0065
vn 0.1568 -0.9867 -0.042
vn 0.0002 0.0002 1
vn 0.4629 0.8863 0.0136
vn 0.3589 0.9334 0.0012
vn 0.4502 0.8929 0.0092
vn 0.7909 0.6119 0.0079
vn 0.7547 0.6558 0.0168
vn 0.8149 0.5795 -0.0102
vn 0.745 0.6651 0.051
vn 0.7749 0.6309 0.0387
vn 0.8437 0.5367 -0.0147
vn 0.9978 0.0572 0.0323
vn 0.9918 -0.1206 0.0423
vn 0.9979 -0.0424 0.0489
vn 0.8984 -0.439 -0.0098
vn 0.8856 -0.4638 0.0235
vn 0.8725 -0.4806 0.0884
vn 0.6984 -0.7149 -0.0346
vn 0.626 -0.7798 -0.0087
vn 0.614 -0.7893 -0.0062
vn 0.5956 -0.8027 0.0304
vn 0.6076 -0.7938 0.0272
vn 0.5262 -0.8489 0.0506
vn 0.1594 -0.9866 -0.035
vn 0.082 -0.9961 -0.0325
vn -0.0153 -0.9999 -0.0024
vn 0.054 -0.9967 -0.0613
vn 0.1494 -0.9869 -0.0605
vn 0.0509 -0.9951 -0.0845
vn 0.935 -0.3536 -0.0283
vn 0.9138 -0.4057 -0.0199
vn 0.9736 -0.2247 -0.0399
vn 0.9875 0.1517 -0.0439
vn 0.9984 0.0509 -0.0254
vn 0.9722 0.2288 -0.0505
vn 0.3775 0.9259 -0.012
vn 0.4293 0.9032 0.0021
vn 0.2545 0.966 -0.0457
vn 0.2304 0.973 -0.0145
vn 0.0496 0.9986 -0.016
vn 0.2042 0.9788 -0.016
vn 0.6053 0.7958 0.0182
vn 0.5325 0.8463 0.0158
vn 0.6944 0.7194 0.0142
vn 0.7909 -0.612 0.0004
vn 0.8037 -0.5815 -0.1261
vn 0.7422 -0.6684 0.0487
vn 0.03 -0.9992 0.027
vn 0.2099 -0.9749 -0.0747
vn 0.2023 -0.9793 -0.0113
vn 0.9779 0.2086 0.0122
vn 0.9996 0.0273 0.0063
vn 0.9996 0.0274 0.0053
vn 0.9998 0.0205 -0.0041
vn 0.9868 -0.1618 -0.0035
vn 0.9821 -0.1884 -0.0033
vn 0.9048 -0.4259 0.0038
vn 0.9275 -0.3737 0.0034
vn 0.8337 -0.5522 0.001
vn 0.3587 -0.9334 0.0117
vn 0.4896 -0.8718 0.016
vn 0.305 -0.9523 0.0084
vn 0.799 0.6012 -0.0102
vn 0.8903 0.455 -0.0167
vn 0.7812 0.6242 -0.0091
vn -0.0002 -0.0002 -1
vn -0.0003 0.0002 -1
vt 0.499531 0.939224
vt 0.524162 0.941788
vt 0.499534 0.943017
vt 0.524155 0.945376
vt 0.499527 0.947002
vt 0.524161 0.948152
vt 0.499531 0.951202
vt 0.52416 0.95078
vt 0.524158 0.953965
vt 0.499529 0.954288
vt 0.989625 0.157512
vt 0.989605 0.154323
vt 0.994884 0.154323
vt 0.99485 0.157143
vt 0.989642 0.166015
vt 0.994855 0.164337
vt 0.994877 0.1699
vt 0.989605 0.178403
vt 0.989605 0.174622
vt 0.994856 0.176634
vt 0.994826 0.172864
vt 0.989605 0.170835
vt 0.989605 0.161509
vt 0.994877 0.160181
vt 0.989656 0.957024
vt 0.989622 0.954204
vt 0.994883 0.954762
vt 0.994897 0.959889
vt 0.989626 0.960516
vt 0.989653 0.964351
vt 0.994857 0.964132
vt 0.989628 0.967805
vt 0.994879 0.969187
vt 0.989656 0.972217
vt 0.994887 0.973834
vt 0.989647 0.976558
vt 0.994894 0.978141
vt 0.17233 0.978553
vt 0.17279 0.974935
vt 0.177452 0.976997
vt 0.176427 0.973445
vt 0.167609 0.976835
vt 0.168924 0.973361
vt 0.164355 0.972395
vt 0.167461 0.970284
vt 0.164131 0.967905
vt 0.168027 0.96746
vt 0.166191 0.964011
vt 0.17144 0.96489
vt 0.16945 0.961673
vt 0.173202 0.961107
vt 0.175576 0.965618
vt 0.176942 0.962291
vt 0.180096 0.965207
vt 0.177769 0.969355
vt 0.181291 0.96859
vt 0.180605 0.973363
vt 0.774964 0.963394
vt 0.780553 0.979674
vt 0.77656 0.979925
vt 0.772962 0.978293
vt 0.770797 0.975997
vt 0.769564 0.971336
vt 0.770768 0.966723
vt 0.781385 0.963296
vt 0.785364 0.966507
vt 0.786914 0.971527
vt 0.785402 0.975987
vt 0.095203 0.984342
vt 0.089931 0.984486
vt 0.089984 0.9808
vt 0.095192 0.978031
vt 0.089931 0.976918
vt 0.095204 0.975217
vt 0.089958 0.972672
vt 0.095178 0.970575
vt 0.089941 0.967527
vt 0.095203 0.966264
vt 0.089979 0.963023
vt 0.095208 0.961744
vt 0.089931 0.960405
vt 0.09521 0.98148
vt 0.868627 0.959537
vt 0.867606 0.962948
vt 0.863676 0.9604
vt 0.86385 0.96476
vt 0.871287 0.964353
vt 0.872837 0.961083
vt 0.875687 0.965008
vt 0.872743 0.966902
vt 0.876196 0.970045
vt 0.872622 0.969719
vt 0.874205 0.973867
vt 0.870449 0.972443
vt 0.870876 0.976276
vt 0.866411 0.973054
vt 0.867038 0.976802
vt 0.86282 0.975393
vt 0.860523 0.973146
vt 0.863232 0.970937
vt 0.862495 0.968638
vt 0.8591 0.967683
vt 0.860739 0.962795
vt 0.995027 0.27647
vt 0.989812 0.280183
vt 0.989789 0.276733
vt 0.989807 0.272078
vt 0.995061 0.272516
vt 0.989844 0.266646
vt 0.995032 0.268502
vt 0.995058 0.264537
vt 0.989796 0.263782
vt 0.995062 0.260461
vt 0.98983 0.259829
vt 0.995068 0.256936
vt 0.989789 0.256936
vt 0.995061 0.280873
vt 0.524159 0.937726
vt 0.499529 0.935316
vt 0.524158 0.928094
vt 0.524159 0.931573
vt 0.499532 0.929412
vt 0.524162 0.925532
vt 0.499527 0.926037
vt 0.499527 0.932038
vt 0.524162 0.933897
vt 0.887954 0.964913
vt 0.893913 0.96282
vt 0.897995 0.96386
vt 0.900483 0.9661
vt 0.902215 0.971602
vt 0.901043 0.976042
vt 0.898709 0.978552
vt 0.895084 0.980093
vt 0.890308 0.979459
vt 0.88675 0.97681
vt 0.884988 0.972984
vt 0.885366 0.968686
usemtl Opaque(210,210,255)
f 1/1/1 2/2/2 3/3/3
f 3/3/4 4/4/5 5/5/6
f 5/5/7 6/6/8 7/7/9
f 3/3/10 2/2/11 4/4/12
f 5/5/13 4/4/14 6/6/15
f 6/6/16 8/8/17 7/7/18
f 7/7/19 8/8/20 9/9/21
f 10/10/22 7/7/23 9/9/24
f 11/11/25 12/12/26 13/13/27
f 11/11/28 13/13/29 14/14/30
f 15/15/31 16/16/32 17/17/33
f 18/18/34 19/19/35 20/20/36
f 20/20/37 19/19/38 21/21/39
f 21/21/40 19/19/41 22/22/42
f 21/21/43 22/22/44 17/17/45
f 17/17/46 22/22/47 15/15/48
f 16/16/49 15/15/50 23/23/51
f 16/16/52 23/23/53 24/24/54
f 23/23/55 11/11/56 24/24/57
f 24/24/58 11/11/59 14/14/60
f 25/25/61 26/26/62 27/27/63
f 28/28/64 25/25/65 27/27/66
f 25/25/67 28/28/68 29/29/69
f 30/30/70 31/31/71 32/32/72
f 31/31/73 33/33/74 32/32/75
f 34/34/76 35/35/77 36/36/78
f 36/36/79 35/35/80 37/37/81
f 35/35/82 34/34/83 33/33/84
f 33/33/85 34/34/86 32/32/87
f 31/31/88 30/30/89 29/29/90
f 31/31/91 29/29/92 28/28/93
f 38/38/94 1/39/94 36/40/94
f 36/40/95 1/39/95 3/41/95
f 1/39/95 38/38/95 39/42/95
f 1/39/95 39/42/95 40/43/95
f 40/43/95 39/42/95 41/44/95
f 40/43/95 41/44/95 42/45/95
f 42/45/95 41/44/95 43/46/95
f 42/45/95 43/46/95 44/47/95
f 44/47/95 43/46/95 45/48/95
f 44/47/95 45/48/95 10/49/95
f 10/49/95 45/48/95 26/50/95
f 10/49/95 26/50/95 25/51/95
f 10/49/95 25/51/95 7/52/95
f 7/52/95 25/51/95 29/53/95
f 7/52/96 29/53/96 30/54/96
f 7/52/95 30/54/95 5/55/95
f 5/55/95 30/54/95 32/56/95
f 5/55/95 32/56/95 34/57/95
f 5/55/95 34/57/95 3/41/95
f 3/41/95 34/57/95 36/40/95
f 37/58/97 27/59/97 46/60/97
f 37/58/97 46/60/97 47/61/97
f 37/58/97 47/61/97 48/62/97
f 48/62/97 49/63/97 37/58/97
f 37/58/97 49/63/97 50/64/97
f 37/58/97 35/65/97 33/66/97
f 37/58/98 33/66/98 31/67/98
f 37/58/99 31/67/99 28/68/99
f 37/58/97 28/68/97 27/59/97
f 27/69/100 26/70/101 45/71/102
f 47/72/103 45/71/104 43/73/105
f 47/72/106 43/73/107 48/74/108
f 48/74/109 43/73/110 41/75/111
f 49/76/112 41/75/113 39/77/114
f 50/78/115 39/77/116 38/79/117
f 37/80/118 38/79/119 36/81/120
f 38/79/121 37/80/122 50/78/123
f 50/78/124 49/76/125 39/77/126
f 41/75/127 49/76/128 48/74/129
f 45/71/130 47/72/131 46/82/132
f 45/71/133 46/82/134 27/69/135
f 11/83/97 2/84/97 12/85/97
f 12/85/97 2/84/97 51/86/97
f 2/84/97 11/83/97 4/87/97
f 4/87/136 11/83/136 23/88/136
f 4/87/97 23/88/97 15/89/97
f 4/87/97 15/89/97 6/90/97
f 6/90/97 15/89/97 22/91/97
f 6/90/97 22/91/97 8/92/97
f 8/92/97 22/91/97 19/93/97
f 8/92/97 19/93/97 9/94/97
f 9/94/97 19/93/97 18/95/97
f 9/94/97 18/95/97 52/96/97
f 52/96/97 18/95/97 53/97/97
f 52/96/97 53/97/97 54/98/97
f 52/96/97 54/98/97 55/99/97
f 52/96/97 55/99/97 56/100/97
f 56/100/97 55/99/97 57/101/97
f 57/101/97 55/99/97 58/102/97
f 57/101/97 58/102/97 51/86/97
f 51/86/97 58/102/97 59/103/97
f 51/86/97 59/103/97 12/85/97
f 60/104/137 12/105/138 59/106/139
f 60/104/140 59/106/141 58/107/142
f 60/104/143 58/107/144 61/108/145
f 58/107/146 55/109/147 62/110/148
f 63/111/149 55/109/150 54/112/151
f 63/111/152 54/112/153 64/113/154
f 64/113/155 54/112/156 53/114/157
f 64/113/158 53/114/159 20/115/160
f 20/115/161 53/114/162 18/116/163
f 55/109/164 63/111/165 62/110/166
f 58/107/167 62/110/168 61/108/169
f 12/105/170 60/104/171 13/117/172
f 51/118/173 2/2/174 1/1/175
f 51/118/176 1/1/177 40/119/178
f 52/120/179 56/121/180 44/122/181
f 9/123/182 52/120/183 10/124/184
f 40/119/185 42/125/186 57/126/187
f 57/126/188 42/125/189 56/121/190
f 56/121/191 42/125/192 44/122/193
f 52/120/194 44/122/195 10/124/196
f 40/119/197 57/126/198 51/118/199
f 64/127/95 20/128/95 21/129/95
f 64/127/95 21/129/95 17/130/95
f 17/130/95 16/131/95 64/127/95
f 64/127/200 16/131/200 24/132/200
f 24/132/95 14/133/95 64/127/95
f 14/133/95 13/134/95 64/127/95
f 64/127/95 13/134/95 60/135/95
f 64/127/95 60/135/95 61/136/95
f 61/136/95 62/137/95 64/127/95
f 64/127/201 62/137/201 63/138/201
s off
