# Blender 3.4.1
# www.blender.org
mtllib Metallfuehrung.mtl
o Pneumatikspanner.043
v -0.003892 0.011228 -0.171575
v -0.002959 0.016143 -0.171325
v 0.010744 0.013103 -0.171594
v 0.009794 0.008192 -0.171645
v -0.004546 0.014139 -0.152583
v -0.011965 0.013019 -0.152683
v -0.011965 0.013019 -0.179683
v 0.017812 0.006414 -0.179683
v 0.017812 0.006414 -0.152683
v 0.011562 0.010566 -0.152583
v -0.010934 0.017666 -0.179243
v 0.018843 0.011065 -0.178507
v -0.011118 0.016835 -0.153047
v 0.018658 0.010230 -0.153046
vn 0.0166 -0.0136 0.9998
vn -0.0059 -0.0497 0.9987
vn 0.1454 -0.9772 0.1548
vn -0.2166 -0.9763 -0.0000
vn -0.2166 -0.9763 -0.0001
vn -0.2165 -0.9763 -0.0000
vn -0.5451 -0.8242 0.1532
vn 0.0199 0.0899 -0.9958
vn 0.0747 0.2288 -0.9706
vn -0.0287 0.1012 0.9945
vn 0.9799 -0.1892 0.0627
vn -0.9763 0.2166 -0.0000
vn -0.9762 0.2167 -0.0000
vn -0.9797 0.1888 0.0674
vn 0.0686 0.0794 0.9945
vn 0.9763 -0.2164 -0.0000
vn 0.0553 0.9900 0.1297
vn 0.2707 0.9621 0.0335
vn 0.2171 0.9756 -0.0333
vn 0.2159 0.9760 -0.0298
vn 0.1563 0.9872 0.0324
vn 0.3685 0.9206 0.1296
vt 0.979612 0.705421
vt 0.131531 0.788113
vt 0.987279 0.398872
vt 0.988410 0.705421
vt 0.978481 0.398872
vt 0.811004 0.115970
vt 0.988410 0.695743
vt 0.978605 0.858128
vt 0.810629 0.137890
vt 0.979612 0.695743
vt 0.131558 0.809708
vt 0.987403 0.858128
vt 0.099771 0.784477
vt 0.991354 0.982160
vt 0.982914 0.374230
vt 0.838979 0.112645
vt 0.099771 0.772159
vt 0.987862 0.994478
vt 0.543070 0.830529
vt 0.147282 0.772159
vt 0.965816 0.353765
vt 0.543070 0.878039
vt 0.147282 0.825828
vt 0.965816 0.407434
vt 0.367220 0.926140
vt 0.099771 0.825828
vt 0.174889 0.981655
vt 0.367220 0.973651
vt 0.099771 0.813511
vt 0.983038 0.882770
vt 0.178382 0.993972
vt 0.838979 0.141679
vt 0.971095 0.353765
vt 0.550285 0.876103
vt 0.798507 0.100327
vt 0.971095 0.407434
vt 0.375086 0.928728
vt 0.798507 0.153997
vt 0.993141 0.994478
vt 0.549469 0.831649
vt 0.838979 0.100327
vt 0.180168 0.981655
vt 0.373618 0.972532
vt 0.838979 0.153997
s 0
usemtl Opaque(210,210,255)
f 4/10/1 3/7/1 2/4/1
f 2/4/2 1/1/2 4/10/2
f 5/13/3 6/17/3 1/2/3
f 1/2/4 6/17/4 7/20/4
f 1/2/4 7/20/4 8/23/4
f 1/2/5 8/23/5 4/11/5
f 4/11/6 8/23/6 9/26/6
f 4/11/7 9/26/7 10/29/7
f 8/24/8 7/21/8 11/33/8
f 12/36/9 8/24/9 11/33/9
f 13/39/10 6/18/10 5/14/10
f 1/3/11 2/5/11 5/15/11
f 11/34/12 7/22/12 13/40/12
f 13/40/13 7/22/13 6/19/13
f 10/30/14 3/8/14 4/12/14
f 14/42/15 10/31/15 9/27/15
f 14/43/16 9/28/16 8/25/16
f 8/25/16 12/37/16 14/43/16
f 10/32/17 14/44/17 3/9/17
f 3/9/18 14/44/18 12/38/18
f 3/9/19 12/38/19 11/35/19
f 3/9/20 11/35/20 2/6/20
f 2/6/21 11/35/21 13/41/21
f 2/6/22 13/41/22 5/16/22
