# Blender 3.4.1
# www.blender.org
mtllib Passstift_groß.mtl
o Pneumatikspanner.021
v 0.014002 -0.029232 -0.019301
v 0.013086 -0.029907 -0.018223
v 0.013656 -0.030802 -0.018167
v 0.013233 -0.032711 -0.018738
v 0.012457 -0.032521 -0.018502
v 0.013078 -0.033405 -0.020149
v 0.012215 -0.033410 -0.019816
v 0.012704 -0.031436 -0.018026
v 0.012433 -0.033245 -0.021688
v 0.013143 -0.033111 -0.021715
v -0.029201 -0.019384 -0.019310
v 0.013248 -0.028879 -0.019231
v 0.013383 -0.028543 -0.020581
v -0.029031 -0.019181 -0.020928
v -0.029206 -0.019895 -0.022399
v 0.013024 -0.029965 -0.022805
v 0.013216 -0.029018 -0.021989
v 0.012671 -0.031639 -0.022955
v -0.029647 -0.021754 -0.023030
v -0.030554 -0.022674 -0.022543
v -0.030154 -0.020496 -0.018391
v -0.029909 -0.019391 -0.019518
v -0.029883 -0.019270 -0.021190
v -0.030027 -0.019925 -0.022199
v -0.030266 -0.020996 -0.022785
v -0.029458 -0.021000 -0.018027
v -0.030485 -0.021987 -0.018264
v -0.029778 -0.022494 -0.018157
v -0.030776 -0.023291 -0.019105
v -0.029941 -0.023375 -0.018739
v -0.030116 -0.024005 -0.019953
v -0.030861 -0.023689 -0.020597
v -0.030074 -0.023970 -0.021365
v -0.030777 -0.023303 -0.021800
v 0.014073 -0.028917 -0.020724
v 0.013904 -0.029687 -0.022287
v 0.013485 -0.031577 -0.022819
vn 0.5239 0.4804 0.7034
vn 0.5226 0.4801 0.7046
vn 0.5349 0.3333 0.7764
vn 0.1307 -0.9247 0.3577
vn 0.2273 -0.8566 0.4632
vn 0.1344 -0.9249 0.3557
vn 0.1074 0.1148 0.9876
vn 0.1429 0.1868 0.9719
vn 0.0947 0.0082 0.9955
vn 0.3268 -0.2343 0.9156
vn 0.3264 -0.3118 0.8923
vn 0.2824 -0.4309 0.8571
vn 0.1613 -0.4711 0.8672
vn 0.2252 -0.3484 0.9099
vn 0.1391 -0.5146 0.8461
vn -0.1133 -0.7863 0.6074
vn 0.0215 -0.8562 0.5162
vn 0.0545 -0.8557 0.5145
vn 0.0044 -0.9999 -0.0098
vn -0.0229 -0.9981 -0.0573
vn -0.0961 -0.9847 -0.1451
vn 0.1747 -0.9455 -0.2748
vn 0.1127 -0.9891 -0.0952
vn 0.1573 -0.9671 -0.2001
vn 0.1562 0.7040 0.6928
vn 0.0858 0.6063 0.7906
vn 0.2184 0.7094 0.6701
vn 0.2084 0.9517 0.2253
vn 0.2111 0.9527 0.2188
vn 0.2157 0.9748 0.0561
vn 0.1238 0.5523 -0.8244
vn 0.1598 0.7046 -0.6914
vn 0.1240 0.5486 -0.8268
vn 0.1474 0.9243 0.3522
vn 0.1840 0.9329 0.3097
vn 0.3223 0.9117 0.2549
vn 0.2118 0.9493 -0.2324
vn 0.2116 0.9424 -0.2592
vn 0.1984 0.8915 -0.4072
vn 0.2031 0.9172 -0.3427
vn 0.1855 0.8403 -0.5094
vn 0.1810 0.8202 -0.5427
vn 0.0300 0.1290 -0.9912
vn 0.0435 0.1923 -0.9804
vn -0.0027 -0.0259 -0.9997
vn -0.0477 -0.2951 -0.9543
vn -0.0935 -0.4116 -0.9066
vn -0.1307 -0.4890 -0.8624
vn -0.1500 -0.6843 -0.7136
vn -0.1255 -0.5674 -0.8138
vn -0.1157 -0.5112 -0.8516
vn 0.0645 0.3054 -0.9500
vn 0.0417 0.2008 -0.9787
vn 0.0882 0.4085 -0.9085
vn -0.1599 0.6825 0.7132
vn -0.1498 0.6899 0.7083
vn -0.2085 0.7687 0.6047
vn -0.0502 0.9867 0.1545
vn -0.0599 0.9876 0.1453
vn -0.0110 0.9999 -0.0053
vn -0.1354 0.9894 0.0524
vn -0.2023 0.9583 0.2020
vn -0.1097 0.9939 -0.0084
vn -0.2321 0.4358 -0.8696
vn -0.2134 0.5749 -0.7899
vn -0.2181 0.5779 -0.7865
vn 0.0311 0.9381 -0.3449
vn 0.0376 0.9287 -0.3690
vn 0.0416 0.8606 -0.5076
vn -0.1274 0.8895 -0.4388
vn -0.1705 0.7936 -0.5841
vn -0.1724 0.7790 -0.6029
vn -0.0236 0.3186 -0.9476
vn -0.0331 0.4156 -0.9089
vn -0.0540 0.2284 -0.9721
vn -0.3849 0.0144 -0.9228
vn -0.3729 0.0268 -0.9275
vn -0.4465 -0.1385 -0.8840
vn -0.0110 0.5573 0.8302
vn 0.0148 0.6845 0.7288
vn 0.0049 0.5742 0.8187
vn -0.3378 0.1738 0.9250
vn -0.3195 0.2520 0.9135
vn -0.3385 0.0622 0.9389
vn -0.3852 -0.3693 0.8457
vn -0.3815 -0.3725 0.8460
vn -0.4829 -0.4500 0.7512
vn -0.4051 -0.3658 0.8379
vn -0.3959 -0.5110 0.7630
vn -0.3963 -0.5322 0.7481
vn -0.3080 -0.7770 0.5490
vn -0.3058 -0.7922 0.5281
vn -0.3209 -0.8636 0.3889
vn -0.5217 -0.8235 0.2227
vn -0.5041 -0.7884 0.3526
vn -0.5169 -0.8441 0.1425
vn -0.4057 -0.9120 0.0610
vn -0.3948 -0.9185 -0.0208
vn -0.3988 -0.9077 -0.1303
vn -0.2813 -0.7493 -0.5995
vn -0.2963 -0.7591 -0.5797
vn -0.2687 -0.6341 -0.7250
vn -0.4915 -0.8438 -0.2154
vn -0.5563 -0.7938 -0.2459
vn -0.6445 -0.6992 -0.3093
vn -0.2184 -0.0145 0.9758
vn -0.2081 -0.1463 0.9671
vn -0.2266 0.0449 0.9730
vn 0.1192 0.5530 0.8246
vn 0.1450 0.6714 0.7267
vn 0.1161 0.5307 0.8396
vn -0.0099 -0.0404 0.9991
vn 0.0031 0.0172 0.9998
vn -0.0423 -0.1830 0.9822
vn -0.1035 -0.4611 0.8813
vn -0.1338 -0.5975 0.7906
vn -0.1024 -0.4613 0.8813
vn -0.1634 -0.7459 0.6457
vn -0.1641 -0.7458 0.6457
vn -0.1877 -0.8479 0.4959
vn -0.2148 -0.9706 -0.1087
vn -0.2734 -0.9619 -0.0067
vn -0.1001 -0.9895 -0.1041
vn -0.2459 -0.6730 -0.6975
vn -0.1577 -0.7574 -0.6336
vn -0.1536 -0.6282 -0.7627
vn -0.1831 -0.8257 0.5336
vn -0.1789 -0.8115 0.5563
vn -0.2032 -0.9000 0.3857
vn -0.3280 -0.9442 -0.0306
vn -0.2146 -0.9762 -0.0309
vn -0.1557 -0.9789 -0.1325
vn -0.1406 -0.4396 0.8871
vn -0.1320 -0.4461 0.8852
vn 0.0016 -0.3999 0.9165
vn 0.0328 0.1366 0.9901
vn 0.0057 0.0220 0.9997
vn 0.0523 0.2208 0.9739
vn 0.3195 0.6783 0.6616
vn 0.4105 0.5698 0.7119
vn 0.4071 0.5678 0.7154
vn 0.1173 -0.5143 -0.8495
vn 0.0675 -0.6730 -0.7366
vn 0.0995 -0.6705 -0.7352
vn 0.1899 -0.7029 -0.6855
vn 0.1831 -0.5371 -0.8234
vn 0.1740 -0.5495 -0.8171
vn 0.1082 -0.0416 -0.9933
vn 0.2462 0.1154 -0.9623
vn 0.2519 0.0927 -0.9633
vn 0.3865 0.0803 -0.9188
vn 0.3840 0.0966 -0.9183
vn 0.5060 0.2384 -0.8289
vn 0.2416 0.5129 -0.8238
vn 0.3175 0.6593 -0.6816
vn 0.3120 0.6422 -0.7001
vn 0.4992 0.7147 -0.4899
vn 0.5128 0.7263 -0.4578
vn 0.5139 0.7816 -0.3536
vn 0.4121 0.8187 -0.3998
vn 0.4140 0.8716 -0.2624
vn 0.4057 0.8672 -0.2887
vn 0.4939 0.8600 0.1282
vn 0.4989 0.8564 0.1332
vn 0.4797 0.8268 0.2936
vn 0.4480 0.8765 0.1762
vn 0.4248 0.8412 0.3346
vn 0.4201 0.8434 0.3350
vn -0.9761 0.2173 -0.0000
vn -0.9760 0.2176 -0.0004
vn -0.9761 0.2173 -0.0002
vn -0.9768 0.2143 0.0003
vn -0.9767 0.2146 0.0002
vn -0.9812 0.1790 0.0726
vn -0.9811 0.1792 0.0725
vn -0.9811 0.1794 0.0725
vn -0.9719 0.2018 -0.1213
vn -0.9762 0.2169 0.0014
vn -0.9763 0.2163 -0.0007
vn -0.9764 0.2161 -0.0006
vn -0.9764 0.2162 -0.0007
vn -0.9759 0.2184 0.0012
vn -0.9758 0.2185 0.0012
vn -0.9763 0.2162 -0.0003
vn -0.9764 0.2162 -0.0002
vn 0.9764 -0.2159 0.0006
vn 0.9764 -0.2159 0.0004
vn 0.9765 -0.2156 0.0005
vn 0.9763 -0.2165 -0.0019
vn 0.9761 -0.2172 -0.0012
vn 0.9762 -0.2168 -0.0018
vn 0.9762 -0.2167 -0.0018
vn 0.9763 -0.2164 -0.0018
vn 0.9763 -0.2162 -0.0019
vn 0.9763 -0.2164 0.0006
vn 0.9763 -0.2165 0.0005
vn 0.9759 -0.2183 0.0026
vn 0.9758 -0.2185 0.0026
vn 0.9758 -0.2186 0.0024
vn 0.9765 -0.2155 0.0004
vn 0.9765 -0.2155 0.0012
vn 0.9765 -0.2154 0.0008
vt 0.996008 0.693402
vt 0.951212 0.996485
vt 0.986913 0.736463
vt 0.997465 0.694559
vt 0.926096 0.077904
vt 0.915487 0.375842
vt 0.952669 0.997633
vt 0.996046 0.695603
vt 0.990080 0.737312
vt 0.996028 0.698975
vt 0.991622 0.740314
vt 0.997463 0.698666
vt 0.919779 0.375851
vt 0.996030 0.701675
vt 0.990745 0.742881
vt 0.997465 0.701152
vt 0.922375 0.375852
vt 0.997465 0.696767
vt 0.917795 0.375840
vt 0.997439 0.704040
vt 0.913654 0.077904
vt 0.925405 0.375841
vt 0.952669 0.985723
vt 0.996045 0.704110
vt 0.951212 0.985723
vt 0.988554 0.744172
vt 0.924682 0.001533
vt 0.992919 0.694759
vt 0.701689 0.997661
vt 0.914278 0.299482
vt 0.924868 0.077899
vt 0.952669 0.996458
vt 0.922742 0.077912
vt 0.952669 0.994422
vt 0.922194 0.001533
vt 0.992904 0.697149
vt 0.919518 0.001537
vt 0.992938 0.699698
vt 0.918191 0.077889
vt 0.952669 0.990066
vt 0.920351 0.077903
vt 0.952669 0.992133
vt 0.915564 0.077893
vt 0.952669 0.987551
vt 0.916366 0.001540
vt 0.992938 0.702715
vt 0.914177 0.001539
vt 0.991992 0.704254
vt 0.701689 0.985751
vt 0.926721 0.299482
vt 0.890478 0.990949
vt 0.991481 0.693402
vt 0.700273 0.996340
vt 0.887210 0.983711
vt 0.991500 0.694998
vt 0.890106 0.983530
vt 0.991495 0.697652
vt 0.892282 0.985297
vt 0.991486 0.699699
vt 0.892859 0.987268
vt 0.991564 0.701754
vt 0.892281 0.989278
vt 0.701667 0.995726
vt 0.916290 0.299486
vt 0.700254 0.994021
vt 0.885404 0.985345
vt 0.701690 0.993511
vt 0.918614 0.299482
vt 0.700254 0.991326
vt 0.885012 0.988024
vt 0.701686 0.991830
vt 0.920370 0.299484
vt 0.701689 0.989844
vt 0.922445 0.299476
vt 0.700278 0.988825
vt 0.886233 0.990256
vt 0.701651 0.987602
vt 0.924804 0.299482
vt 0.700257 0.986609
vt 0.888378 0.991243
vt 0.951218 0.994173
vt 0.984793 0.737655
vt 0.951219 0.991223
vt 0.983805 0.740427
vt 0.951216 0.987924
vt 0.985295 0.743397
s 0
usemtl Opaque(210,210,255)
f 1/1/1 2/4/2 3/8/3
f 6/14/4 4/10/5 7/16/6
f 3/8/7 2/4/8 8/18/9
f 3/8/10 8/18/11 4/10/12
f 4/10/13 8/18/14 5/12/15
f 5/12/16 7/16/17 4/10/18
f 6/14/19 7/16/20 9/20/21
f 10/24/22 6/14/23 9/20/24
f 11/27/25 2/5/26 12/31/27
f 11/27/28 13/33/29 14/35/30
f 15/37/31 17/41/32 16/39/33
f 11/27/34 12/31/35 13/33/36
f 14/35/37 13/33/38 17/41/39
f 14/35/40 17/41/41 15/37/42
f 19/45/43 16/39/44 18/43/45
f 19/45/46 18/43/47 20/47/48
f 9/21/49 20/47/50 18/43/51
f 16/39/52 19/45/53 15/37/54
f 21/52/55 11/28/56 22/55/57
f 22/55/58 11/28/59 23/57/60
f 23/57/61 11/28/62 14/36/63
f 25/61/64 24/59/65 15/38/66
f 23/57/67 14/36/68 15/38/69
f 23/57/70 15/38/71 24/59/72
f 25/61/73 15/38/74 19/46/75
f 25/61/76 19/46/77 20/48/78
f 26/63/79 11/29/80 21/53/81
f 26/63/82 21/53/83 27/65/84
f 28/67/85 27/65/86 29/69/87
f 28/67/88 29/69/89 30/71/90
f 30/71/91 29/69/92 31/73/93
f 31/73/94 29/69/95 32/75/96
f 31/73/97 32/75/98 33/77/99
f 33/77/100 34/79/101 20/49/102
f 33/77/103 32/75/104 34/79/105
f 27/65/106 28/67/107 26/63/108
f 2/6/109 11/30/110 26/64/111
f 8/19/112 26/64/113 28/68/114
f 28/68/115 30/72/116 5/13/117
f 5/13/118 30/72/119 7/17/120
f 7/17/121 31/74/122 9/22/123
f 9/22/124 33/78/125 20/50/126
f 7/17/127 30/72/128 31/74/129
f 31/74/130 33/78/131 9/22/132
f 28/68/133 5/13/134 8/19/135
f 26/64/136 8/19/137 2/6/138
f 12/32/139 2/7/140 1/2/141
f 37/85/142 10/25/143 9/23/144
f 9/23/145 18/44/146 37/85/147
f 18/44/148 16/40/149 37/85/150
f 37/85/151 16/40/152 36/83/153
f 16/40/154 17/42/155 36/83/156
f 36/83/157 17/42/158 35/81/159
f 17/42/160 13/34/161 35/81/162
f 35/81/163 13/34/164 1/2/165
f 13/34/166 12/32/167 1/2/168
f 24/60/169 21/54/170 22/56/171
f 24/60/172 22/56/172 23/58/173
f 24/60/174 25/62/175 20/51/176
f 24/60/177 20/51/177 34/80/177
f 24/60/178 34/80/178 32/76/178
f 24/60/179 32/76/180 29/70/181
f 24/60/182 29/70/183 27/66/182
f 24/60/184 27/66/184 21/54/185
f 1/3/186 36/84/187 35/82/188
f 1/3/189 3/9/190 4/11/191
f 4/11/192 6/15/193 1/3/194
f 6/15/195 10/26/195 1/3/196
f 1/3/197 10/26/198 37/86/199
f 1/3/200 37/86/201 36/84/202
