# Apple ModelIO OBJ File: Metallfuehrung
mtllib Metallfuehrung.mtl
g Pneumatikspanner.043_Opaque(210,210,255)
v 0.009794 0.008192 -0.171645
v 0.010744 0.013103 -0.171594
v -0.002959 0.016143 -0.171325
v -0.003892 0.011228 -0.171575
v -0.004546 0.014139 -0.152583
v -0.011965 0.013019 -0.152683
v -0.011965 0.013019 -0.179683
v 0.017812 0.006414 -0.179683
v 0.017812 0.006414 -0.152683
v 0.011562 0.010566 -0.152583
v -0.010934 0.017666 -0.179243
v 0.018843 0.011065 -0.178507
v -0.011118 0.016835 -0.153047
v 0.018658 0.01023 -0.153046
vn 0.0166 -0.0136 0.9998
vn -0.0059 -0.0497 0.9987
vn 0.1454 -0.9772 0.1548
vn -0.2166 -0.9763 -0
vn -0.2166 -0.9763 -0.0001
vn -0.2165 -0.9763 -0
vn -0.5451 -0.8242 0.1532
vn 0.0199 0.0899 -0.9958
vn 0.0747 0.2288 -0.9706
vn -0.0287 0.1012 0.9945
vn 0.9799 -0.1892 0.0627
vn -0.9763 0.2166 -0
vn -0.9762 0.2167 -0
vn -0.9797 0.1888 0.0674
vn 0.0686 0.0794 0.9945
vn 0.9763 -0.2164 -0
vn 0.0553 0.99 0.1297
vn 0.2707 0.9621 0.0335
vn 0.2171 0.9756 -0.0333
vn 0.2159 0.976 -0.0298
vn 0.1563 0.9872 0.0324
vn 0.3685 0.9206 0.1296
vt 0.979612 0.695743
vt 0.98841 0.695743
vt 0.98841 0.705421
vt 0.979612 0.705421
vt 0.099771 0.784477
vt 0.099771 0.772159
vt 0.131531 0.788113
vt 0.147282 0.772159
vt 0.147282 0.825828
vt 0.131558 0.809708
vt 0.099771 0.825828
vt 0.099771 0.813511
vt 0.965816 0.407434
vt 0.965816 0.353765
vt 0.971095 0.353765
vt 0.971095 0.407434
vt 0.993141 0.994478
vt 0.987862 0.994478
vt 0.991354 0.98216
vt 0.987279 0.398872
vt 0.978481 0.398872
vt 0.982914 0.37423
vt 0.550285 0.876103
vt 0.54307 0.878039
vt 0.549469 0.831649
vt 0.54307 0.830529
vt 0.983038 0.88277
vt 0.978605 0.858128
vt 0.987403 0.858128
vt 0.180168 0.981655
vt 0.178382 0.993972
vt 0.174889 0.981655
vt 0.373618 0.972532
vt 0.36722 0.973651
vt 0.36722 0.92614
vt 0.375086 0.928728
vt 0.838979 0.141679
vt 0.838979 0.153997
vt 0.810629 0.13789
vt 0.798507 0.153997
vt 0.798507 0.100327
vt 0.811004 0.11597
vt 0.838979 0.100327
vt 0.838979 0.112645
usemtl Opaque(210,210,255)
f 1/1/1 2/2/1 3/3/1
f 3/3/2 4/4/2 1/1/2
f 5/5/3 6/6/3 4/7/3
f 4/7/4 6/6/4 7/8/4
f 4/7/4 7/8/4 8/9/4
f 4/7/5 8/9/5 1/10/5
f 1/10/6 8/9/6 9/11/6
f 1/10/7 9/11/7 10/12/7
f 8/13/8 7/14/8 11/15/8
f 12/16/9 8/13/9 11/15/9
f 13/17/10 6/18/10 5/19/10
f 4/20/11 3/21/11 5/22/11
f 11/23/12 7/24/12 13/25/12
f 13/25/13 7/24/13 6/26/13
f 10/27/14 2/28/14 1/29/14
f 14/30/15 10/31/15 9/32/15
f 14/33/16 9/34/16 8/35/16
f 8/35/16 12/36/16 14/33/16
f 10/37/17 14/38/17 2/39/17
f 2/39/18 14/38/18 12/40/18
f 2/39/19 12/40/19 11/41/19
f 2/39/20 11/41/20 3/42/20
f 3/42/21 11/41/21 13/43/21
f 3/42/22 13/43/22 5/44/22
s off
